<svg aria-hidden="true" style="position: absolute; width: 0; height: 0; overflow: hidden;" version="1.1" xmlns="http://www.w3.org/2000/svg" xmlns:xlink="http://www.w3.org/1999/xlink">
<defs>
<symbol id="icon-arrow" viewBox="0 0 48 32">
<path d="M40.062 18.635c-0.261-1.955-0.43-3.7-0.506-5.235-0.033-1.56 0.026-2.91 0.178-4.050l-37.94 21.905-1.795-3.109 37.94-21.905c-1.092-0.488-2.305-1.137-3.639-1.945-1.291-0.834-2.704-1.827-4.238-2.981l2.278-1.315c4.813 2.024 9.215 3.036 13.206 3.035l0.769 1.332c-2.025 3.406-3.35 7.724-3.975 12.954l-2.278 1.315z"></path>
</symbol>
<symbol id="icon-graphics" viewBox="0 0 36 32">
<path d="M36.054 31.964h-1.126v-1.142h1.126v1.142z"></path>
<path d="M34.929 31.964h-1.126v-1.142h1.126v1.142z"></path>
<path d="M30.424 31.964h-1.126v-1.142h1.126v1.142z"></path>
<path d="M29.297 31.964h-1.126v-1.142h1.126v1.142z"></path>
<path d="M28.172 31.964h-1.126v-1.142h1.126v1.142z"></path>
<path d="M21.416 31.964h-1.126v-1.142h1.126v1.142z"></path>
<path d="M14.66 31.964h-1.126v-1.142h1.126v1.142z"></path>
<path d="M7.905 31.964h-1.126v-1.142h1.126v1.142z"></path>
<path d="M6.778 31.964h-1.126v-1.142h1.126v1.142z"></path>
<path d="M5.652 31.964h-1.126v-1.142h1.126v1.142z"></path>
<path d="M1.148 31.964h-1.126v-1.142h1.126v1.142z"></path>
<path d="M36.054 30.823h-1.126v-1.142h1.126v1.142z"></path>
<path d="M31.549 30.823h-1.126v-1.142h1.126v1.142z"></path>
<path d="M30.424 30.823h-1.126v-1.142h1.126v1.142z"></path>
<path d="M29.297 30.823h-1.126v-1.142h1.126v1.142z"></path>
<path d="M21.416 30.823h-1.126v-1.142h1.126v1.142z"></path>
<path d="M20.289 30.823h-1.126v-1.142h1.126v1.142z"></path>
<path d="M15.786 30.823h-1.126v-1.142h1.126v1.142z"></path>
<path d="M14.66 30.823h-1.126v-1.142h1.126v1.142z"></path>
<path d="M6.778 30.823h-1.126v-1.142h1.126v1.142z"></path>
<path d="M5.652 30.823h-1.126v-1.142h1.126v1.142z"></path>
<path d="M4.527 30.823h-1.126v-1.142h1.126v1.142z"></path>
<path d="M32.677 29.681h-1.126v-1.142h1.126v1.142z"></path>
<path d="M31.549 29.681h-1.126v-1.142h1.126v1.142z"></path>
<path d="M30.424 29.681h-1.126v-1.142h1.126v1.142z"></path>
<path d="M21.416 29.681h-1.126v-1.142h1.126v1.142z"></path>
<path d="M20.289 29.681h-1.126v-1.142h1.126v1.142z"></path>
<path d="M19.164 29.681h-1.126v-1.142h1.126v1.142z"></path>
<path d="M16.911 29.681h-1.126v-1.142h1.126v1.142z"></path>
<path d="M15.786 29.681h-1.126v-1.142h1.126v1.142z"></path>
<path d="M14.66 29.681h-1.126v-1.142h1.126v1.142z"></path>
<path d="M5.652 29.681h-1.126v-1.142h1.126v1.142z"></path>
<path d="M4.527 29.681h-1.126v-1.142h1.126v1.142z"></path>
<path d="M3.4 29.681h-1.126v-1.142h1.126v1.142z"></path>
<path d="M33.802 28.54h-1.126v-1.142h1.126v1.142z"></path>
<path d="M32.677 28.54h-1.126v-1.142h1.126v1.142z"></path>
<path d="M31.549 28.54h-1.126v-1.142h1.126v1.142z"></path>
<path d="M25.921 28.54h-1.126v-1.142h1.126v1.142z"></path>
<path d="M24.794 28.54h-1.126v-1.142h1.126v1.142z"></path>
<path d="M23.668 28.54h-1.126v-1.142h1.126v1.142z"></path>
<path d="M20.289 28.54h-1.126v-1.142h1.126v1.142z"></path>
<path d="M19.164 28.54h-1.126v-1.142h1.126v1.142z"></path>
<path d="M16.911 28.54h-1.126v-1.142h1.126v1.142z"></path>
<path d="M15.786 28.54h-1.126v-1.142h1.126v1.142z"></path>
<path d="M12.408 28.54h-1.126v-1.142h1.126v1.142z"></path>
<path d="M11.283 28.54h-1.126v-1.142h1.126v1.142z"></path>
<path d="M10.156 28.54h-1.126v-1.142h1.126v1.142z"></path>
<path d="M4.527 28.54h-1.126v-1.142h1.126v1.142z"></path>
<path d="M3.4 28.54h-1.126v-1.142h1.126v1.142z"></path>
<path d="M2.275 28.54h-1.126v-1.142h1.126v1.142z"></path>
<path d="M34.929 27.398h-1.126v-1.142h1.126v1.142z"></path>
<path d="M33.802 27.398h-1.126v-1.142h1.126v1.142z"></path>
<path d="M32.677 27.398h-1.126v-1.142h1.126v1.142z"></path>
<path d="M24.794 27.398h-1.126v-1.142h1.126v1.142z"></path>
<path d="M23.668 27.398h-1.126v-1.142h1.126v1.142z"></path>
<path d="M22.543 27.398h-1.126v-1.142h1.126v1.142z"></path>
<path d="M19.164 27.398h-1.126v-1.142h1.126v1.142z"></path>
<path d="M16.911 27.398h-1.126v-1.142h1.126v1.142z"></path>
<path d="M13.535 27.398h-1.126v-1.142h1.126v1.142z"></path>
<path d="M12.408 27.398h-1.126v-1.142h1.126v1.142z"></path>
<path d="M11.283 27.398h-1.126v-1.142h1.126v1.142z"></path>
<path d="M3.4 27.398h-1.126v-1.142h1.126v1.142z"></path>
<path d="M2.275 27.398h-1.126v-1.142h1.126v1.142z"></path>
<path d="M1.148 27.398h-1.126v-1.142h1.126v1.142z"></path>
<path d="M34.929 26.256h-1.126v-1.142h1.126v1.142z"></path>
<path d="M33.802 26.256h-1.126v-1.142h1.126v1.142z"></path>
<path d="M23.668 26.256h-1.126v-1.142h1.126v1.142z"></path>
<path d="M22.543 26.256h-1.126v-1.142h1.126v1.142z"></path>
<path d="M21.416 26.256h-1.126v-1.142h1.126v1.142z"></path>
<path d="M14.66 26.256h-1.126v-1.142h1.126v1.142z"></path>
<path d="M13.535 26.256h-1.126v-1.142h1.126v1.142z"></path>
<path d="M12.408 26.256h-1.126v-1.142h1.126v1.142z"></path>
<path d="M2.275 26.256h-1.126v-1.142h1.126v1.142z"></path>
<path d="M1.148 26.256h-1.126v-1.142h1.126v1.142z"></path>
<path d="M34.929 25.115h-1.126v-1.142h1.126v1.142z"></path>
<path d="M29.297 25.115h-1.126v-1.142h1.126v1.142z"></path>
<path d="M19.164 25.115h-1.126v-1.142h1.126v1.142z"></path>
<path d="M16.911 25.115h-1.126v-1.142h1.126v1.142z"></path>
<path d="M6.778 25.115h-1.126v-1.142h1.126v1.142z"></path>
<path d="M1.148 25.115h-1.126v-1.142h1.126v1.142z"></path>
<path d="M29.297 23.973h-1.126v-1.142h1.126v1.142z"></path>
<path d="M28.172 23.973h-1.126v-1.142h1.126v1.142z"></path>
<path d="M20.289 23.973h-1.126v-1.142h1.126v1.142z"></path>
<path d="M19.164 23.973h-1.126v-1.142h1.126v1.142z"></path>
<path d="M16.911 23.973h-1.126v-1.142h1.126v1.142z"></path>
<path d="M15.786 23.973h-1.126v-1.142h1.126v1.142z"></path>
<path d="M7.905 23.973h-1.126v-1.142h1.126v1.142z"></path>
<path d="M6.778 23.973h-1.126v-1.142h1.126v1.142z"></path>
<path d="M29.297 22.832h-1.126v-1.142h1.126v1.142z"></path>
<path d="M28.172 22.832h-1.126v-1.142h1.126v1.142z"></path>
<path d="M27.046 22.832h-1.126v-1.142h1.126v1.142z"></path>
<path d="M21.416 22.832h-1.126v-1.142h1.126v1.142z"></path>
<path d="M20.289 22.832h-1.126v-1.142h1.126v1.142z"></path>
<path d="M15.786 22.832h-1.126v-1.142h1.126v1.142z"></path>
<path d="M14.66 22.832h-1.126v-1.142h1.126v1.142z"></path>
<path d="M9.030 22.832h-1.126v-1.142h1.126v1.142z"></path>
<path d="M7.905 22.832h-1.126v-1.142h1.126v1.142z"></path>
<path d="M6.778 22.832h-1.126v-1.142h1.126v1.142z"></path>
<path d="M28.172 21.69h-1.126v-1.142h1.126v1.142z"></path>
<path d="M27.046 21.69h-1.126v-1.142h1.126v1.142z"></path>
<path d="M22.543 21.69h-1.126v-1.142h1.126v1.142z"></path>
<path d="M21.416 21.69h-1.126v-1.142h1.126v1.142z"></path>
<path d="M14.66 21.69h-1.126v-1.142h1.126v1.142z"></path>
<path d="M13.535 21.69h-1.126v-1.142h1.126v1.142z"></path>
<path d="M9.030 21.69h-1.126v-1.142h1.126v1.142z"></path>
<path d="M7.905 21.69h-1.126v-1.142h1.126v1.142z"></path>
<path d="M32.677 20.548h-1.126v-1.142h1.126v1.142z"></path>
<path d="M31.549 20.548h-1.126v-1.142h1.126v1.142z"></path>
<path d="M30.424 20.549h-1.126v-1.142h1.126v1.142z"></path>
<path d="M27.046 20.549h-1.126v-1.142h1.126v1.142z"></path>
<path d="M23.668 20.548h-1.126v-1.142h1.126v1.142z"></path>
<path d="M22.543 20.548h-1.126v-1.142h1.126v1.142z"></path>
<path d="M13.535 20.549h-1.126v-1.142h1.126v1.142z"></path>
<path d="M12.408 20.549h-1.126v-1.142h1.126v1.142z"></path>
<path d="M9.030 20.548h-1.126v-1.142h1.126v1.142z"></path>
<path d="M5.652 20.548h-1.126v-1.142h1.126v1.142z"></path>
<path d="M4.527 20.549h-1.126v-1.142h1.126v1.142z"></path>
<path d="M3.4 20.549h-1.126v-1.142h1.126v1.142z"></path>
<path d="M36.054 19.407h-1.126v-1.142h1.126v1.142z"></path>
<path d="M31.549 19.407h-1.126v-1.142h1.126v1.142z"></path>
<path d="M30.424 19.407h-1.126v-1.142h1.126v1.142z"></path>
<path d="M29.297 19.407h-1.126v-1.142h1.126v1.142z"></path>
<path d="M24.794 19.407h-1.126v-1.142h1.126v1.142z"></path>
<path d="M23.668 19.407h-1.126v-1.142h1.126v1.142z"></path>
<path d="M12.408 19.407h-1.126v-1.142h1.126v1.142z"></path>
<path d="M11.283 19.407h-1.126v-1.142h1.126v1.142z"></path>
<path d="M6.778 19.407h-1.126v-1.142h1.126v1.142z"></path>
<path d="M5.652 19.407h-1.126v-1.142h1.126v1.142z"></path>
<path d="M4.527 19.407h-1.126v-1.142h1.126v1.142z"></path>
<path d="M36.054 18.265h-1.126v-1.142h1.126v1.142z"></path>
<path d="M34.929 18.265h-1.126v-1.142h1.126v1.142z"></path>
<path d="M30.424 18.265h-1.126v-1.142h1.126v1.142z"></path>
<path d="M29.297 18.265h-1.126v-1.142h1.126v1.142z"></path>
<path d="M28.172 18.265h-1.126v-1.142h1.126v1.142z"></path>
<path d="M25.921 18.265h-1.126v-1.142h1.126v1.142z"></path>
<path d="M24.794 18.265h-1.126v-1.142h1.126v1.142z"></path>
<path d="M18.039 18.265h-1.126v-1.142h1.126v1.142z"></path>
<path d="M11.283 18.265h-1.126v-1.142h1.126v1.142z"></path>
<path d="M10.156 18.265h-1.126v-1.142h1.126v1.142z"></path>
<path d="M7.905 18.265h-1.126v-1.142h1.126v1.142z"></path>
<path d="M6.778 18.265h-1.126v-1.142h1.126v1.142z"></path>
<path d="M5.652 18.265h-1.126v-1.142h1.126v1.142z"></path>
<path d="M1.126 17.124h-1.126v-1.142h1.126v1.142z"></path>
<path d="M2.275 17.124h-1.126v-1.142h1.126v1.142z"></path>
<path d="M1.126 18.265h-1.126v-1.142h1.126v1.142z"></path>
<path d="M1.126 15.982h-1.126v-1.142h1.126v1.142z"></path>
<path d="M36.054 17.124h-1.126v-1.142h1.126v1.142z"></path>
<path d="M34.929 17.124h-1.126v-1.142h1.126v1.142z"></path>
<path d="M33.802 17.124h-1.126v-1.142h1.126v1.142z"></path>
<path d="M19.164 17.124h-1.126v-1.142h1.126v1.142z"></path>
<path d="M18.039 17.124h-1.126v-1.142h1.126v1.142z"></path>
<path d="M16.911 17.124h-1.126v-1.142h1.126v1.142z"></path>
<path d="M36.054 15.982h-1.126v-1.142h1.126v1.142z"></path>
<path d="M34.929 15.982h-1.126v-1.142h1.126v1.142z"></path>
<path d="M30.424 15.982h-1.126v-1.142h1.126v1.142z"></path>
<path d="M29.297 15.982h-1.126v-1.142h1.126v1.142z"></path>
<path d="M28.172 15.982h-1.126v-1.142h1.126v1.142z"></path>
<path d="M25.921 15.982h-1.126v-1.142h1.126v1.142z"></path>
<path d="M24.794 15.982h-1.126v-1.142h1.126v1.142z"></path>
<path d="M18.039 15.982h-1.126v-1.142h1.126v1.142z"></path>
<path d="M11.283 15.982h-1.126v-1.142h1.126v1.142z"></path>
<path d="M10.156 15.982h-1.126v-1.142h1.126v1.142z"></path>
<path d="M7.905 15.982h-1.126v-1.142h1.126v1.142z"></path>
<path d="M6.778 15.982h-1.126v-1.142h1.126v1.142z"></path>
<path d="M5.652 15.982h-1.126v-1.142h1.126v1.142z"></path>
<path d="M36.054 14.841h-1.126v-1.142h1.126v1.142z"></path>
<path d="M31.549 14.841h-1.126v-1.142h1.126v1.142z"></path>
<path d="M30.424 14.841h-1.126v-1.142h1.126v1.142z"></path>
<path d="M29.297 14.841h-1.126v-1.142h1.126v1.142z"></path>
<path d="M24.794 14.841h-1.126v-1.142h1.126v1.142z"></path>
<path d="M23.668 14.841h-1.126v-1.142h1.126v1.142z"></path>
<path d="M12.408 14.841h-1.126v-1.142h1.126v1.142z"></path>
<path d="M11.283 14.841h-1.126v-1.142h1.126v1.142z"></path>
<path d="M6.778 14.841h-1.126v-1.142h1.126v1.142z"></path>
<path d="M5.652 14.841h-1.126v-1.142h1.126v1.142z"></path>
<path d="M4.527 14.841h-1.126v-1.142h1.126v1.142z"></path>
<path d="M32.677 13.699h-1.126v-1.142h1.126v1.142z"></path>
<path d="M31.549 13.699h-1.126v-1.142h1.126v1.142z"></path>
<path d="M30.424 13.699h-1.126v-1.142h1.126v1.142z"></path>
<path d="M27.046 13.699h-1.126v-1.142h1.126v1.142z"></path>
<path d="M23.668 13.699h-1.126v-1.142h1.126v1.142z"></path>
<path d="M22.543 13.699h-1.126v-1.142h1.126v1.142z"></path>
<path d="M13.535 13.699h-1.126v-1.142h1.126v1.142z"></path>
<path d="M12.408 13.699h-1.126v-1.142h1.126v1.142z"></path>
<path d="M9.030 13.699h-1.126v-1.142h1.126v1.142z"></path>
<path d="M5.652 13.699h-1.126v-1.142h1.126v1.142z"></path>
<path d="M4.527 13.699h-1.126v-1.142h1.126v1.142z"></path>
<path d="M3.4 13.699h-1.126v-1.142h1.126v1.142z"></path>
<path d="M28.172 12.557h-1.126v-1.142h1.126v1.142z"></path>
<path d="M27.046 12.557h-1.126v-1.142h1.126v1.142z"></path>
<path d="M22.543 12.557h-1.126v-1.142h1.126v1.142z"></path>
<path d="M21.416 12.557h-1.126v-1.142h1.126v1.142z"></path>
<path d="M14.66 12.557h-1.126v-1.142h1.126v1.142z"></path>
<path d="M13.535 12.557h-1.126v-1.142h1.126v1.142z"></path>
<path d="M9.030 12.557h-1.126v-1.142h1.126v1.142z"></path>
<path d="M7.905 12.557h-1.126v-1.142h1.126v1.142z"></path>
<path d="M29.297 11.416h-1.126v-1.142h1.126v1.142z"></path>
<path d="M28.172 11.416h-1.126v-1.142h1.126v1.142z"></path>
<path d="M27.046 11.416h-1.126v-1.142h1.126v1.142z"></path>
<path d="M21.416 11.416h-1.126v-1.142h1.126v1.142z"></path>
<path d="M20.289 11.416h-1.126v-1.142h1.126v1.142z"></path>
<path d="M15.786 11.416h-1.126v-1.142h1.126v1.142z"></path>
<path d="M14.66 11.416h-1.126v-1.142h1.126v1.142z"></path>
<path d="M9.030 11.416h-1.126v-1.142h1.126v1.142z"></path>
<path d="M7.905 11.416h-1.126v-1.142h1.126v1.142z"></path>
<path d="M6.778 11.416h-1.126v-1.142h1.126v1.142z"></path>
<path d="M29.297 10.274h-1.126v-1.142h1.126v1.142z"></path>
<path d="M28.172 10.274h-1.126v-1.142h1.126v1.142z"></path>
<path d="M20.289 10.274h-1.126v-1.142h1.126v1.142z"></path>
<path d="M19.164 10.274h-1.126v-1.142h1.126v1.142z"></path>
<path d="M16.911 10.274h-1.126v-1.142h1.126v1.142z"></path>
<path d="M15.786 10.274h-1.126v-1.142h1.126v1.142z"></path>
<path d="M7.905 10.274h-1.126v-1.142h1.126v1.142z"></path>
<path d="M6.778 10.274h-1.126v-1.142h1.126v1.142z"></path>
<path d="M29.297 9.133h-1.126v-1.142h1.126v1.142z"></path>
<path d="M19.164 9.133h-1.126v-1.142h1.126v1.142z"></path>
<path d="M16.911 9.133h-1.126v-1.142h1.126v1.142z"></path>
<path d="M6.778 9.133h-1.126v-1.142h1.126v1.142z"></path>
<path d="M34.929 7.991h-1.126v-1.142h1.126v1.142z"></path>
<path d="M1.148 7.991h-1.126v-1.142h1.126v1.142z"></path>
<path d="M34.929 6.85h-1.126v-1.142h1.126v1.142z"></path>
<path d="M33.802 6.849h-1.126v-1.142h1.126v1.142z"></path>
<path d="M23.668 6.85h-1.126v-1.142h1.126v1.142z"></path>
<path d="M22.543 6.85h-1.126v-1.142h1.126v1.142z"></path>
<path d="M21.416 6.849h-1.126v-1.142h1.126v1.142z"></path>
<path d="M14.66 6.85h-1.126v-1.142h1.126v1.142z"></path>
<path d="M13.535 6.849h-1.126v-1.142h1.126v1.142z"></path>
<path d="M12.408 6.849h-1.126v-1.142h1.126v1.142z"></path>
<path d="M2.275 6.85h-1.126v-1.142h1.126v1.142z"></path>
<path d="M1.148 6.849h-1.126v-1.142h1.126v1.142z"></path>
<path d="M34.929 5.708h-1.126v-1.142h1.126v1.142z"></path>
<path d="M33.802 5.708h-1.126v-1.142h1.126v1.142z"></path>
<path d="M32.677 5.708h-1.126v-1.142h1.126v1.142z"></path>
<path d="M24.794 5.708h-1.126v-1.142h1.126v1.142z"></path>
<path d="M23.668 5.708h-1.126v-1.142h1.126v1.142z"></path>
<path d="M22.543 5.708h-1.126v-1.142h1.126v1.142z"></path>
<path d="M19.164 5.708h-1.126v-1.142h1.126v1.142z"></path>
<path d="M16.911 5.708h-1.126v-1.142h1.126v1.142z"></path>
<path d="M13.535 5.708h-1.126v-1.142h1.126v1.142z"></path>
<path d="M12.408 5.708h-1.126v-1.142h1.126v1.142z"></path>
<path d="M11.283 5.708h-1.126v-1.142h1.126v1.142z"></path>
<path d="M3.4 5.708h-1.126v-1.142h1.126v1.142z"></path>
<path d="M2.275 5.708h-1.126v-1.142h1.126v1.142z"></path>
<path d="M1.148 5.708h-1.126v-1.142h1.126v1.142z"></path>
<path d="M33.802 4.566h-1.126v-1.142h1.126v1.142z"></path>
<path d="M32.677 4.566h-1.126v-1.142h1.126v1.142z"></path>
<path d="M31.549 4.566h-1.126v-1.142h1.126v1.142z"></path>
<path d="M25.921 4.566h-1.126v-1.142h1.126v1.142z"></path>
<path d="M24.794 4.566h-1.126v-1.142h1.126v1.142z"></path>
<path d="M23.668 4.566h-1.126v-1.142h1.126v1.142z"></path>
<path d="M20.289 4.566h-1.126v-1.142h1.126v1.142z"></path>
<path d="M19.164 4.566h-1.126v-1.142h1.126v1.142z"></path>
<path d="M16.911 4.566h-1.126v-1.142h1.126v1.142z"></path>
<path d="M15.786 4.566h-1.126v-1.142h1.126v1.142z"></path>
<path d="M12.408 4.566h-1.126v-1.142h1.126v1.142z"></path>
<path d="M11.283 4.566h-1.126v-1.142h1.126v1.142z"></path>
<path d="M10.156 4.566h-1.126v-1.142h1.126v1.142z"></path>
<path d="M4.527 4.566h-1.126v-1.142h1.126v1.142z"></path>
<path d="M3.4 4.566h-1.126v-1.142h1.126v1.142z"></path>
<path d="M2.275 4.566h-1.126v-1.142h1.126v1.142z"></path>
<path d="M32.677 3.425h-1.126v-1.142h1.126v1.142z"></path>
<path d="M31.549 3.425h-1.126v-1.142h1.126v1.142z"></path>
<path d="M30.424 3.425h-1.126v-1.142h1.126v1.142z"></path>
<path d="M21.416 3.425h-1.126v-1.142h1.126v1.142z"></path>
<path d="M20.289 3.425h-1.126v-1.142h1.126v1.142z"></path>
<path d="M19.164 3.425h-1.126v-1.142h1.126v1.142z"></path>
<path d="M16.911 3.425h-1.126v-1.142h1.126v1.142z"></path>
<path d="M15.786 3.425h-1.126v-1.142h1.126v1.142z"></path>
<path d="M14.66 3.425h-1.126v-1.142h1.126v1.142z"></path>
<path d="M5.652 3.425h-1.126v-1.142h1.126v1.142z"></path>
<path d="M4.527 3.425h-1.126v-1.142h1.126v1.142z"></path>
<path d="M3.4 3.425h-1.126v-1.142h1.126v1.142z"></path>
<path d="M36.054 2.283h-1.126v-1.142h1.126v1.142z"></path>
<path d="M31.549 2.283h-1.126v-1.142h1.126v1.142z"></path>
<path d="M30.424 2.283h-1.126v-1.142h1.126v1.142z"></path>
<path d="M29.297 2.283h-1.126v-1.142h1.126v1.142z"></path>
<path d="M21.416 2.283h-1.126v-1.142h1.126v1.142z"></path>
<path d="M20.289 2.283h-1.126v-1.142h1.126v1.142z"></path>
<path d="M15.786 2.283h-1.126v-1.142h1.126v1.142z"></path>
<path d="M14.66 2.283h-1.126v-1.142h1.126v1.142z"></path>
<path d="M6.778 2.283h-1.126v-1.142h1.126v1.142z"></path>
<path d="M5.652 2.283h-1.126v-1.142h1.126v1.142z"></path>
<path d="M4.527 2.283h-1.126v-1.142h1.126v1.142z"></path>
<path d="M36.054 1.142h-1.126v-1.142h1.126v1.142z"></path>
<path d="M34.929 1.142h-1.126v-1.142h1.126v1.142z"></path>
<path d="M30.424 1.142h-1.126v-1.142h1.126v1.142z"></path>
<path d="M29.297 1.142h-1.126v-1.142h1.126v1.142z"></path>
<path d="M28.172 1.142h-1.126v-1.142h1.126v1.142z"></path>
<path d="M21.416 1.142h-1.126v-1.142h1.126v1.142z"></path>
<path d="M14.66 1.142h-1.126v-1.142h1.126v1.142z"></path>
<path d="M7.905 1.142h-1.126v-1.142h1.126v1.142z"></path>
<path d="M6.778 1.142h-1.126v-1.142h1.126v1.142z"></path>
<path d="M5.652 1.142h-1.126v-1.142h1.126v1.142z"></path>
<path d="M1.148 1.142h-1.126v-1.142h1.126v1.142z"></path>
</symbol>
<symbol id="icon-close" viewBox="0 0 32 32">
<path stroke-linejoin="round" stroke-linecap="round" stroke-miterlimit="4" stroke-width="1.7778" d="M24 8l-16 16"></path>
<path stroke-linejoin="round" stroke-linecap="round" stroke-miterlimit="4" stroke-width="1.7778" d="M8 8l16 16"></path>
</symbol>
<symbol id="icon-burger" viewBox="0 0 48 32">
<path stroke-linejoin="miter" stroke-linecap="round" stroke-miterlimit="4" stroke-width="2.6667" d="M8.638 5.455h38.029"></path>
<path stroke-linejoin="miter" stroke-linecap="round" stroke-miterlimit="4" stroke-width="2.6667" d="M8.638 24.849h38.029"></path>
<path stroke-linejoin="miter" stroke-linecap="round" stroke-miterlimit="4" stroke-width="2.6667" d="M20.116 15.151h26.551"></path>
</symbol>
</defs>
</svg>
